<svg width="33" height="33" viewBox="0 0 33 33" fill="none" xmlns="http://www.w3.org/2000/svg">
<path d="M6.875 9.625H25.8363C26.2205 9.62501 26.6004 9.70553 26.9516 9.86137C27.3027 10.0172 27.6174 10.2449 27.8752 10.5298C28.133 10.8146 28.3282 11.1504 28.4483 11.5153C28.5684 11.8803 28.6107 12.2663 28.5725 12.6486L27.7475 20.8986C27.6796 21.5772 27.3621 22.2064 26.8565 22.664C26.3508 23.1216 25.6932 23.375 25.0113 23.375H11.88C11.244 23.3753 10.6276 23.1551 10.1357 22.7519C9.64385 22.3488 9.3069 21.7876 9.18225 21.164L6.875 9.625Z" stroke="white" stroke-width="2" stroke-linejoin="round"/>
<path d="M6.875 9.625L5.76125 5.16587C5.68676 4.86854 5.51506 4.60461 5.27341 4.41603C5.03176 4.22744 4.73403 4.12501 4.4275 4.125H2.75M11 28.875H13.75M22 28.875H24.75" stroke="white" stroke-width="2" stroke-linecap="round" stroke-linejoin="round"/>
</svg>
